<?xml version="1.0" standalone="no"?>
<!DOCTYPE svg PUBLIC "-//W3C//DTD SVG 20010904//EN"
 "http://www.w3.org/TR/2001/REC-SVG-20010904/DTD/svg10.dtd">
<svg version="1.0" xmlns="http://www.w3.org/2000/svg"
 width="575.000000pt" height="575.000000pt" viewBox="0 0 575.000000 575.000000"
 preserveAspectRatio="xMidYMid meet">
<metadata>
Created by potrace 1.14, written by Peter Selinger 2001-2017
</metadata>
<g transform="translate(0.000000,575.000000) scale(0.100000,-0.100000)"
fill="#000000" stroke="none">
<path d="M3338 5533 c6 -2 18 -2 25 0 6 3 1 5 -13 5 -14 0 -19 -2 -12 -5z"/>
<path d="M3415 5520 c3 -5 12 -7 20 -3 21 7 19 13 -6 13 -11 0 -18 -4 -14 -10z"/>
<path d="M3460 5511 c0 -5 17 -12 37 -16 20 -3 55 -15 77 -25 100 -45 133 -61
164 -81 30 -20 32 -20 32 -2 0 25 -97 76 -205 108 -96 28 -105 29 -105 16z"/>
<path d="M3325 5460 c107 -29 142 -42 200 -69 179 -83 272 -191 291 -336 6
-46 -10 -193 -23 -206 -4 -4 -9 19 -9 51 -1 91 -36 168 -117 255 -135 147
-288 214 -524 231 -215 15 -455 -90 -598 -263 -85 -103 -148 -227 -174 -345
-15 -64 3 -42 28 35 45 133 166 305 270 381 182 134 408 184 621 137 165 -36
291 -114 362 -223 72 -110 87 -190 50 -270 -13 -27 -24 -48 -26 -48 -2 0 -1
22 2 50 7 75 -16 177 -53 235 -59 92 -171 172 -282 201 -51 13 -191 30 -148
18 240 -70 341 -137 401 -269 34 -75 37 -191 5 -252 -12 -24 -23 -43 -24 -43
-2 0 -2 15 0 33 l4 32 -20 -35 c-18 -33 -46 -63 -116 -125 l-30 -26 30 6 c17
4 40 16 53 27 12 12 22 16 22 10 0 -6 -4 -14 -10 -17 -34 -21 8 -27 75 -11
l30 7 -27 -18 c-33 -21 -37 -37 -8 -28 41 13 77 7 135 -23 73 -37 102 -67 149
-153 45 -82 80 -202 101 -340 9 -57 22 -135 30 -174 8 -38 15 -71 15 -73 0 -2
4 -1 8 2 5 3 8 -5 8 -17 -1 -14 6 -23 19 -25 11 -3 31 -16 44 -30 l23 -26 -4
45 c-3 24 -8 53 -12 64 -4 11 2 3 14 -18 13 -24 19 -46 14 -59 -4 -15 -3 -18
6 -13 8 5 11 4 6 -3 -3 -6 -2 -13 4 -17 8 -5 50 -77 68 -118 2 -4 -4 -4 -14 0
-10 3 -15 2 -12 -3 4 -5 -11 -9 -33 -9 -21 0 -39 4 -39 9 0 6 -4 6 -10 0 -5
-5 -6 -24 0 -49 12 -51 12 -75 1 -75 -5 0 -14 13 -21 29 -25 61 -41 70 -132
67 -46 -1 -99 4 -118 10 -19 7 -98 15 -176 19 -130 7 -144 5 -180 -13 -91 -47
-157 -152 -132 -208 l12 -25 13 25 c8 14 19 26 26 26 8 0 7 4 -3 11 -12 8 -10
9 8 4 12 -3 22 -3 22 2 0 4 16 26 36 48 30 33 33 35 15 8 -12 -17 -28 -48 -36
-67 -14 -34 -14 -36 3 -36 11 0 35 25 62 66 24 36 60 76 80 89 77 49 175 58
242 24 23 -12 58 -27 77 -34 34 -13 35 -14 9 -14 -21 -1 -28 -6 -28 -21 0 -11
5 -20 10 -20 16 0 12 -30 -5 -36 -31 -12 -3 -22 36 -13 23 6 47 8 53 5 6 -2 3
-5 -8 -5 -10 -1 -54 -17 -97 -36 -102 -46 -177 -54 -276 -27 -73 20 -73 20
-128 -1 -30 -11 -55 -23 -55 -27 0 -4 25 -7 56 -7 30 0 60 -5 67 -12 8 -8 7
-11 -6 -11 -9 0 -17 -5 -17 -11 0 -7 17 -10 45 -7 42 3 45 1 45 -21 0 -19 3
-21 14 -12 11 9 15 9 19 -1 4 -10 8 -10 16 2 9 12 11 12 17 -3 7 -20 40 -23
48 -4 3 8 8 7 16 -5 11 -18 70 -26 70 -10 0 4 28 7 63 8 37 1 74 8 92 17 17 9
35 17 40 17 17 0 65 60 65 81 0 17 -5 19 -37 13 l-38 -6 42 36 c23 20 45 45
48 56 9 29 34 24 40 -7 4 -16 10 -46 15 -68 26 -118 31 -147 34 -220 4 -81
-14 -196 -53 -340 -97 -357 -108 -394 -154 -497 -85 -189 -415 -495 -618 -572
-149 -56 -354 -25 -509 78 -124 82 -344 290 -393 371 -73 122 -115 230 -176
450 -21 77 -41 133 -43 125 -3 -8 -3 -4 -1 10 2 14 -2 41 -7 60 -11 35 -15 54
-44 205 l-15 80 52 80 c28 44 52 82 54 84 2 3 23 -5 47 -17 25 -13 64 -22 92
-23 27 -1 41 -3 31 -6 -9 -2 -15 -9 -12 -14 9 -14 77 -11 109 6 38 20 43 19
21 -5 -17 -19 -17 -20 0 -20 10 0 29 10 42 22 19 17 23 19 17 5 -9 -25 23 -22
36 3 9 16 15 18 30 10 25 -13 30 -13 30 3 0 8 13 13 34 14 42 1 59 11 52 28
-3 9 10 14 45 17 55 6 72 15 49 28 -8 5 -24 16 -35 25 -19 15 -19 16 10 13 27
-3 30 0 27 22 -3 35 -50 99 -100 137 -47 35 -126 63 -182 63 -72 0 -125 -5
-131 -13 -10 -13 -106 -21 -113 -8 -4 6 2 32 13 57 12 26 21 52 21 59 0 33
143 25 265 -15 52 -17 114 -32 190 -45 11 -2 35 -8 53 -13 39 -13 43 3 11 51
l-21 32 26 -30 c14 -16 29 -38 32 -47 3 -10 12 -18 20 -18 12 0 12 5 -1 38
-22 51 -66 94 -104 98 -18 2 -39 8 -49 13 -30 16 -164 39 -265 47 -80 5 -95 9
-86 20 6 8 15 12 19 9 14 -9 68 63 105 138 36 76 95 292 95 349 0 45 53 147
98 190 46 45 108 78 144 78 16 0 28 5 28 10 0 6 -24 10 -52 10 -43 1 -50 3
-34 12 29 16 135 4 186 -22 48 -25 48 -24 -5 40 -19 24 -19 24 0 10 11 -8 28
-25 38 -37 10 -13 23 -23 28 -23 5 0 10 10 10 23 1 16 2 18 6 5 5 -21 19 -23
26 -5 10 25 -15 132 -41 181 -18 33 -47 65 -87 94 -48 36 -54 42 -30 36 62
-15 164 -104 186 -161 5 -13 8 -43 8 -66 l-1 -42 -8 46 c-8 49 -33 103 -52
115 -8 5 -9 2 -3 -12 4 -10 14 -39 22 -64 8 -25 19 -60 24 -77 6 -18 7 -37 4
-43 -13 -20 14 -9 29 12 21 30 21 14 0 -17 -28 -42 -2 -28 62 34 82 80 104
155 68 239 -27 65 -122 144 -189 156 -16 4 -23 3 -15 0 8 -4 37 -23 63 -43 80
-60 134 -179 108 -241 -9 -22 -10 -19 -10 23 -2 93 -78 190 -198 249 -62 30
-74 32 -167 33 -123 0 -171 -18 -249 -97 -106 -108 -153 -247 -168 -506 -14
-245 -20 -274 -71 -377 -99 -197 -251 -329 -458 -397 -77 -25 -117 -32 -210
-35 -102 -4 -126 -2 -214 22 -154 42 -249 90 -386 195 -57 44 -67 45 -30 5 90
-98 259 -199 406 -245 103 -32 248 -30 378 4 54 15 101 25 103 22 8 -8 -155
-66 -244 -87 -102 -24 -213 -20 -348 11 -184 43 -304 120 -515 330 -166 166
-221 203 -338 230 -86 20 -198 9 -254 -24 -90 -52 -151 -134 -178 -236 -19
-74 -21 -80 -31 -80 -5 0 -9 11 -9 24 0 20 -4 22 -26 18 -22 -4 -24 -8 -18
-36 13 -51 8 -72 -27 -123 l-34 -48 -3 -156 -3 -155 52 -55 c29 -30 52 -58 50
-62 -1 -5 3 -25 9 -45 7 -25 8 -80 2 -167 -5 -71 -5 -134 -1 -140 4 -5 12 -36
18 -68 6 -31 15 -66 21 -77 6 -12 7 -26 1 -37 -9 -18 -18 -41 -41 -103 -14
-37 -14 -38 -4 -170 5 -75 9 -89 34 -115 34 -37 50 -67 50 -94 0 -23 10 -27
27 -10 8 8 24 3 59 -15 27 -14 56 -26 64 -26 8 0 35 37 60 83 56 103 187 237
276 284 137 73 275 81 458 28 66 -19 145 -37 177 -41 62 -7 177 9 224 32 25
12 26 13 5 8 -69 -16 -193 -16 -263 1 -79 19 -154 51 -87 37 19 -4 80 -7 135
-7 88 0 107 3 156 27 112 54 186 129 276 276 34 57 46 68 123 109 l85 46 -65
-69 c-37 -38 -93 -103 -125 -144 -32 -41 -72 -90 -89 -107 -16 -18 -25 -33
-19 -33 6 0 52 44 102 98 55 58 88 87 82 72 -11 -32 -68 -129 -89 -153 -8 -9
-13 -19 -10 -22 13 -13 160 162 233 278 30 48 28 22 -6 -60 -47 -112 -88 -175
-172 -267 -80 -87 -149 -134 -255 -174 -61 -23 -87 -26 -277 -32 -170 -6 -225
-12 -290 -29 -203 -57 -319 -168 -361 -348 -19 -83 -13 -163 22 -286 14 -49
24 -91 21 -93 -2 -3 -23 16 -46 42 -42 47 -91 142 -91 175 0 10 -4 21 -10 24
-12 8 -12 2 0 -67 11 -56 47 -136 78 -172 13 -15 14 -18 2 -11 -34 18 -53 42
-82 105 -41 88 -55 171 -41 246 6 33 9 61 7 63 -9 10 -26 -62 -31 -131 -5 -70
-3 -81 25 -142 17 -36 29 -66 27 -66 -10 0 -63 89 -75 127 -17 55 -9 202 15
263 10 25 38 76 63 113 24 37 42 70 40 73 -9 8 -74 -71 -112 -135 -101 -173
-97 -401 10 -508 47 -46 111 -83 146 -83 13 0 30 -5 38 -10 11 -7 2 -10 -32
-10 -27 0 -48 -4 -48 -10 0 -13 64 -24 95 -16 36 9 60 -7 79 -55 20 -51 85
-131 100 -126 6 3 39 -23 73 -56 34 -34 65 -58 68 -55 3 3 -13 20 -36 39 -57
45 -147 169 -180 248 -49 120 -61 355 -23 463 41 118 117 204 235 267 81 44
189 85 189 72 0 -4 -38 -27 -84 -50 -47 -24 -102 -59 -123 -78 -40 -36 -33
-35 32 5 21 14 73 38 115 53 41 15 103 39 138 53 34 13 62 23 62 21 0 -2 -15
-12 -32 -24 -44 -28 -21 -26 54 4 113 46 101 25 -31 -55 -46 -27 -78 -50 -71
-50 13 0 101 38 155 66 17 9 50 25 75 36 l45 19 -34 -35 c-19 -19 -59 -48 -89
-63 -30 -15 -49 -29 -44 -31 16 -5 161 55 224 93 71 44 81 44 37 -1 -65 -68
-141 -109 -281 -153 -186 -59 -229 -77 -296 -125 -127 -89 -184 -195 -185
-345 -1 -60 5 -92 27 -148 27 -71 74 -145 62 -98 -2 11 -12 39 -21 63 -22 63
-30 179 -15 243 39 172 148 281 335 338 22 7 49 16 60 20 11 5 52 19 90 31
106 34 183 75 254 135 36 30 67 52 70 49 11 -11 -136 -140 -196 -171 -32 -18
-117 -51 -188 -74 -162 -52 -234 -87 -297 -147 -108 -101 -134 -232 -88 -431
24 -100 49 -128 34 -38 -13 85 -7 182 16 252 12 36 26 68 32 71 8 5 9 -1 4
-17 -16 -56 -36 -156 -36 -183 0 -40 13 -24 26 32 9 40 10 31 6 -65 -6 -134 2
-170 70 -305 26 -54 48 -107 48 -119 0 -30 36 -90 68 -114 21 -15 39 -19 77
-16 28 2 83 4 123 5 39 0 72 2 72 4 0 2 -22 23 -48 47 -27 24 -64 72 -82 107
-29 53 -35 76 -38 145 -4 82 18 224 41 251 5 7 7 16 3 20 -26 25 -87 -153 -87
-256 -1 -110 15 -157 79 -239 18 -24 30 -43 27 -43 -19 0 -100 58 -131 93
-122 143 -149 334 -75 537 62 169 142 240 386 346 70 30 140 64 156 74 15 11
35 20 44 20 23 0 149 132 187 195 16 28 26 39 23 25 -22 -78 -126 -242 -194
-302 -41 -37 -118 -88 -202 -134 -23 -13 -46 -34 -37 -34 3 0 45 18 92 40 117
53 160 84 274 192 28 27 52 46 52 42 0 -18 -56 -87 -104 -128 -46 -39 -160
-106 -181 -106 -4 0 -37 -14 -74 -31 -36 -17 -84 -40 -107 -50 -46 -21 -102
-74 -146 -137 -39 -56 -30 -65 11 -13 37 47 145 120 214 145 68 26 69 13 1
-18 -52 -24 -152 -112 -140 -123 3 -3 27 14 54 38 48 44 157 95 252 120 24 6
66 22 93 35 27 14 56 22 67 19 10 -3 21 -1 25 4 3 7 0 8 -9 5 -25 -9 -19 4 10
22 20 14 27 15 33 5 6 -9 23 4 57 43 27 31 53 56 57 56 16 0 -60 -94 -113
-140 -59 -50 -185 -130 -207 -130 -7 0 -13 -4 -13 -10 0 -5 4 -10 9 -10 23 0
161 63 208 96 71 49 178 164 194 208 7 20 17 36 21 36 11 0 -20 -75 -58 -140
-30 -52 -129 -155 -184 -192 -17 -11 -20 -17 -10 -17 18 -1 112 59 154 97 16
15 49 54 73 87 29 38 42 51 38 35 -21 -75 -110 -186 -176 -220 -20 -10 -102
-46 -184 -80 -198 -82 -233 -100 -296 -158 -80 -73 -103 -125 -109 -247 l-5
-100 44 -57 c35 -46 51 -59 80 -64 20 -4 43 -10 51 -14 8 -4 27 -10 42 -14 26
-6 25 -3 -16 34 -76 70 -103 184 -74 309 13 59 75 142 135 184 60 41 231 109
255 101 13 -4 18 -2 14 4 -3 6 -2 13 4 17 5 3 10 1 10 -5 0 -22 60 24 152 115
33 33 46 41 38 25 -8 -14 -41 -53 -75 -87 -63 -63 -121 -97 -262 -154 -146
-58 -217 -133 -232 -245 -13 -94 18 -183 89 -254 60 -60 94 -75 177 -74 68 0
70 -1 41 -13 -16 -7 -49 -14 -72 -14 -23 -1 -31 -4 -18 -6 17 -3 22 -11 22
-34 0 -27 -7 -32 -87 -70 -49 -22 -113 -45 -143 -51 -30 -6 -73 -21 -95 -34
-49 -27 -151 -56 -315 -88 -69 -13 -156 -34 -195 -45 -38 -12 -131 -33 -205
-46 -74 -14 -164 -32 -200 -40 -36 -9 -81 -18 -100 -22 -19 -3 -39 -9 -45 -13
-5 -4 -30 -11 -55 -15 -59 -9 -104 -23 -167 -51 -53 -24 -113 -69 -113 -84 0
-5 -13 -29 -30 -53 -28 -43 -30 -50 -29 -143 l1 -99 22 86 c25 96 61 164 105
202 41 34 118 70 132 61 17 -10 61 -113 103 -242 30 -89 41 -112 56 -112 18 0
18 3 6 43 -32 103 -73 207 -103 261 -23 39 -30 62 -23 66 12 7 79 23 585 136
185 41 499 129 615 172 58 22 165 69 239 106 73 37 136 65 139 62 2 -3 -20
-45 -50 -93 -79 -126 -388 -722 -388 -749 0 -2 14 -4 31 -4 24 0 32 5 37 23
10 40 285 572 393 759 62 109 126 195 136 184 2 -2 -58 -115 -135 -252 -114
-206 -362 -691 -362 -709 0 -3 8 -5 18 -5 12 0 52 70 149 268 72 147 150 301
173 342 23 41 62 113 87 160 57 105 132 215 198 290 28 32 59 68 69 81 49 61
106 117 106 103 0 -8 5 -25 11 -36 11 -21 12 -21 25 -3 17 23 16 30 14 -125
-1 -118 -3 -129 -35 -201 -49 -112 -74 -200 -81 -288 l-7 -79 -86 -42 c-98
-48 -136 -80 -150 -124 -6 -17 -22 -98 -36 -180 -14 -82 -28 -153 -31 -158 -3
-4 8 -8 25 -8 34 0 34 0 51 120 23 169 31 211 42 231 7 11 51 39 98 61 47 22
110 53 142 69 120 61 206 89 271 89 40 -1 69 -6 82 -16 14 -11 42 -15 100 -14
44 1 84 1 89 1 5 -1 -1 -13 -15 -27 -38 -42 -140 -83 -239 -98 -79 -12 -94
-17 -128 -48 -33 -30 -176 -108 -226 -123 -17 -5 -18 -12 -12 -67 3 -33 6 -87
6 -119 l0 -59 34 0 c31 0 37 6 91 90 80 128 95 137 364 224 106 35 166 49 227
53 77 5 86 4 128 -21 51 -30 91 -32 165 -10 29 8 55 13 58 11 6 -7 -23 -61
-42 -77 -8 -7 -23 -14 -33 -15 -25 -2 -71 -15 -117 -31 -22 -8 -73 -16 -112
-18 -43 -1 -78 -8 -88 -16 -17 -14 -163 -80 -174 -80 -3 1 16 12 42 26 27 14
47 28 44 30 -8 9 -108 -46 -102 -56 3 -4 -9 -12 -27 -15 -18 -4 -50 -16 -71
-27 -42 -21 -58 -18 -37 7 22 27 -5 16 -31 -13 -60 -66 -68 -62 102 -58 150 3
181 7 379 54 47 11 125 24 173 28 83 6 90 5 112 -16 22 -21 30 -22 105 -16 80
7 81 7 71 -13 -6 -11 -19 -25 -29 -31 -13 -8 -6 -10 32 -8 49 3 50 4 64 47 13
39 13 47 -1 77 -22 45 -45 49 -179 30 -135 -19 -249 -29 -228 -20 128 55 155
73 172 116 29 72 31 94 13 127 -25 50 -48 55 -184 42 -65 -6 -155 -11 -198
-11 -58 0 -99 -7 -153 -25 -40 -14 -75 -23 -77 -21 -2 2 9 8 25 14 96 33 172
117 172 188 0 67 -13 74 -133 69 -129 -4 -300 -29 -351 -50 -44 -18 -69 -8
-46 19 10 13 9 17 -5 22 -11 5 -15 14 -11 29 4 15 0 28 -11 36 -15 12 -16 12
-10 -3 3 -10 3 -18 -2 -18 -5 0 -12 -10 -16 -23 -21 -61 -23 -63 -24 -31 -2
47 36 179 74 258 59 125 172 259 272 323 177 113 315 153 529 153 160 0 277
-29 433 -106 93 -46 126 -69 185 -127 76 -75 138 -160 173 -237 29 -64 53
-137 53 -163 -1 -20 -2 -20 -11 -5 -5 10 -15 18 -20 18 -6 0 -7 -6 -3 -12 10
-16 13 -48 3 -43 -4 3 -12 -2 -19 -10 -11 -13 -10 -14 4 -9 9 3 16 2 16 -4 0
-5 -7 -13 -16 -16 -8 -3 -13 -10 -10 -15 11 -17 18 -139 9 -144 -5 -3 -8 -22
-7 -41 2 -20 -1 -36 -7 -36 -6 0 -9 -21 -8 -50 2 -27 0 -53 -4 -56 -4 -4 -7 0
-7 9 0 10 -5 17 -11 17 -5 0 -9 -9 -7 -19 2 -10 -6 -28 -16 -40 -18 -20 -18
-21 -1 -21 17 0 17 -2 -3 -20 -12 -11 -26 -20 -33 -20 -6 0 -9 -8 -6 -19 3
-14 0 -17 -13 -14 -12 3 -17 -2 -16 -19 1 -16 -5 -23 -19 -23 -11 0 -20 -7
-20 -15 -1 -24 -15 -40 -30 -33 -11 4 -15 -2 -15 -21 0 -19 -5 -26 -20 -26
-11 0 -20 -7 -20 -15 0 -13 22 -15 135 -15 74 0 135 2 135 4 0 3 -7 12 -16 20
-14 14 -12 19 21 52 40 40 58 76 49 99 -4 8 -2 21 3 28 14 18 31 83 38 150 4
31 11 57 15 57 14 0 22 -96 11 -137 -6 -22 -20 -48 -31 -58 -11 -10 -20 -30
-19 -44 1 -40 -12 -104 -26 -121 -7 -8 -15 -23 -18 -33 -6 -16 2 -17 111 -15
l117 3 0 40 c1 53 -10 91 -24 88 -14 -4 -14 10 1 25 6 6 8 15 3 19 -4 5 -10 2
-12 -5 -3 -6 -9 -10 -14 -6 -13 8 -11 24 4 21 17 -3 11 38 -10 63 -11 13 -16
33 -15 58 4 43 -21 124 -49 164 -13 18 -19 44 -19 85 0 32 -5 78 -11 103 -6
25 -12 56 -14 70 -2 14 -13 54 -24 90 -11 36 -21 91 -21 123 0 32 -4 66 -10
76 -5 10 -11 39 -13 64 -2 25 -12 57 -21 71 -15 24 -31 116 -20 116 3 0 12 -7
21 -16 14 -14 14 -16 -3 -29 -11 -8 -14 -15 -8 -15 5 0 15 5 21 11 6 6 17 9
25 6 8 -3 3 -9 -14 -17 -16 -7 -28 -20 -28 -29 0 -12 3 -12 12 -3 7 7 16 12
22 12 6 0 5 -5 -1 -11 -9 -9 -8 -15 3 -26 12 -13 16 -12 29 1 8 8 15 18 15 22
0 5 -5 3 -12 -4 -17 -17 -33 -15 -18 3 9 10 9 15 1 15 -6 0 -11 5 -11 11 0 7
7 8 18 4 9 -4 26 -8 37 -9 14 -1 19 -7 17 -20 -3 -13 1 -17 12 -13 10 4 13 1
9 -9 -3 -7 0 -14 7 -14 17 0 90 -79 90 -98 0 -38 42 -99 93 -136 l54 -38 214
-434 c159 -321 219 -433 232 -434 9 0 17 2 17 4 0 10 -289 590 -353 709 -68
127 -79 164 -33 116 37 -37 115 -184 277 -519 135 -278 150 -305 174 -308 24
-3 26 -1 20 20 -12 38 -268 557 -315 638 -24 41 -54 94 -68 118 -13 24 -22 45
-19 48 3 3 72 -28 153 -69 172 -86 290 -132 465 -181 98 -27 457 -116 577
-142 17 -3 22 0 22 15 0 23 -35 35 -135 46 -33 4 -75 13 -95 20 -19 7 -58 16
-87 19 -28 4 -85 22 -127 41 -42 20 -99 40 -128 45 -28 6 -54 14 -58 19 -3 5
-18 13 -33 16 -15 4 -27 10 -27 14 0 12 -49 31 -80 31 -16 0 -54 11 -84 24
-46 20 -54 28 -49 45 6 24 4 25 -31 11 -34 -13 -61 -3 -45 16 9 11 5 14 -23
14 -22 0 -42 7 -53 20 -10 11 -24 20 -32 20 -7 0 -13 4 -13 9 0 14 23 28 55
34 28 5 142 30 193 42 22 5 22 6 6 23 -17 16 -16 17 19 26 20 5 37 13 37 18 0
11 -17 10 -43 -3 l-22 -12 20 24 c11 13 26 30 33 38 62 66 91 166 73 252 -13
61 -65 154 -98 176 -19 13 -17 6 15 -57 34 -66 37 -80 37 -154 0 -76 -2 -84
-36 -136 -42 -65 -82 -106 -122 -127 l-29 -15 26 35 c14 18 26 41 26 50 0 10
4 17 10 17 29 0 44 136 20 192 -8 17 -9 8 -5 -37 3 -33 1 -76 -4 -95 -7 -29
-9 -21 -10 50 -1 47 -4 96 -7 110 -4 20 -3 22 5 10 6 -8 11 -10 11 -4 0 17
-69 92 -113 123 -23 15 -85 45 -137 65 -191 75 -279 136 -361 249 -59 80 -85
135 -93 192 l-5 40 12 -35 c37 -108 109 -195 195 -239 65 -33 61 -25 -15 30
-59 42 -76 62 -101 112 -17 34 -34 78 -37 97 -6 32 -4 31 18 -16 25 -51 98
-124 126 -124 10 0 0 16 -26 43 -22 23 -49 58 -59 77 -21 42 -32 184 -15 194
6 4 11 18 11 31 0 14 21 64 47 112 25 49 58 109 71 135 14 26 27 46 29 44 3
-3 -51 -127 -84 -191 -26 -51 -52 -139 -53 -173 0 -44 18 -112 36 -136 23 -32
27 -11 8 47 -11 36 -14 64 -9 83 7 26 9 22 21 -39 20 -106 84 -183 169 -203
26 -6 23 -2 -20 27 -28 19 -62 55 -79 83 -27 43 -30 57 -30 120 1 94 32 188
99 306 30 52 71 131 91 174 36 78 36 81 32 187 -4 125 12 121 19 -5 5 -72 2
-90 -25 -163 -17 -46 -27 -83 -23 -83 23 0 127 133 172 220 31 60 33 72 34
160 0 81 -3 102 -24 140 -40 77 -88 127 -212 221 -65 50 -137 112 -160 137
-68 77 -103 166 -38 96 35 -38 91 -75 197 -130 206 -106 335 -274 352 -454 6
-70 7 -73 14 -37 13 57 1 165 -23 220 -11 26 -16 45 -10 41 16 -10 65 -123 72
-168 8 -50 -17 -183 -48 -252 -13 -30 -20 -54 -15 -54 4 0 19 22 31 50 27 61
36 57 19 -7 -28 -102 -83 -169 -206 -251 -75 -50 -103 -83 -145 -167 -27 -56
-31 -72 -27 -124 5 -64 23 -96 67 -112 37 -15 37 -3 -3 34 -34 32 -36 38 -36
93 1 106 56 187 189 277 129 87 248 224 294 341 16 38 21 75 21 146 1 84 -2
101 -26 145 -54 103 -187 197 -408 290 -168 70 -238 113 -307 188 -43 47 -97
126 -90 133 2 2 23 -20 46 -48 23 -29 64 -68 89 -86 58 -41 142 -84 142 -72 0
12 -59 60 -74 60 -14 0 -91 79 -166 170 -80 97 -139 237 -204 484 -15 54 -33
111 -42 127 -8 16 -11 29 -6 29 10 0 25 -31 54 -110 19 -50 37 -93 86 -200 30
-67 106 -171 159 -220 59 -54 160 -115 208 -125 21 -4 12 3 -30 26 -36 20 -96
69 -150 124 -107 107 -167 209 -245 416 -58 152 -87 208 -138 262 -20 20 -31
37 -25 37 22 0 132 -142 148 -191 15 -45 35 -74 35 -51 0 21 -46 121 -79 172
-9 14 -11 21 -4 17 27 -17 125 -159 148 -214 13 -32 24 -49 25 -37 0 27 -80
191 -113 230 -15 18 -27 36 -27 41 0 5 -18 29 -40 53 -22 24 -38 45 -37 47 10
9 87 -61 127 -115 24 -34 46 -60 48 -57 10 10 -86 137 -128 169 -85 64 -152
88 -270 95 l-105 7 60 13 c107 24 232 -2 339 -69 61 -39 55 -17 -10 33 -52 39
-155 76 -236 85 -59 6 -62 17 -7 25 107 14 247 -34 336 -116 27 -24 41 -33 35
-21 -20 37 -93 95 -165 131 -50 24 -62 33 -40 29 18 -3 49 -13 70 -23 59 -27
60 -27 23 -1 -46 32 -83 46 -150 57 -51 9 -48 10 40 7 68 -1 105 -7 129 -20
18 -10 30 -13 27 -7 -10 16 -72 43 -134 57 l-57 14 69 -5 c78 -5 150 -36 216
-93 47 -40 53 -31 10 15 -46 49 -110 89 -176 111 -45 15 -55 22 -41 27 47 20
198 -32 278 -95 21 -18 39 -29 39 -26 0 3 -26 26 -57 52 -32 26 -58 51 -58 57
0 5 -37 29 -83 52 -45 23 -86 46 -90 50 -7 8 97 -2 132 -12 10 -3 16 -1 13 4
-3 5 -34 18 -69 27 -93 27 -96 28 -75 33 27 7 155 -26 210 -54 27 -13 51 -22
53 -20 6 5 -38 35 -86 59 l-35 18 35 -6 35 -5 -40 26 c-22 14 -71 35 -109 46
-47 15 -64 24 -55 30 19 12 -26 12 -68 0 -21 -6 -35 -5 -42 2 -16 16 -13 0 4
-27 9 -13 18 -54 20 -92 l5 -69 -14 56 c-27 116 -89 198 -223 292 -75 52 -134
87 -149 87 -4 0 11 -13 32 -29 21 -16 57 -45 79 -65 l40 -37 -55 39 c-31 22
-79 51 -107 65 -64 33 -190 67 -240 66 l-38 -1 30 -8z m485 -230 c0 -5 -2 -10
-4 -10 -3 0 -8 5 -11 10 -3 6 -1 10 4 10 6 0 11 -4 11 -10z m65 -116 c5 -22 1
-18 -14 15 -24 51 -27 64 -7 35 8 -11 18 -34 21 -50z m282 -10 c-3 -3 -12 -4
-19 -1 -8 3 -5 6 6 6 11 1 17 -2 13 -5z m-1072 -163 c102 -59 156 -133 154
-208 l-1 -38 -8 42 c-16 80 -65 140 -164 202 -63 39 -48 41 19 2z m-155 9 c0
-5 -2 -10 -4 -10 -3 0 -8 5 -11 10 -3 6 -1 10 4 10 6 0 11 -4 11 -10z m-12
-94 c64 -33 135 -97 167 -152 15 -25 24 -48 22 -51 -3 -3 -13 9 -21 26 -38 72
-136 153 -224 186 -29 11 -32 14 -14 14 12 1 44 -10 70 -23z m9 -152 c-3 -3
-12 -4 -19 -1 -8 3 -5 6 6 6 11 1 17 -2 13 -5z m771 -71 c-16 -2 -40 -2 -55 0
-16 2 -3 4 27 4 30 0 43 -2 28 -4z m174 -126 c46 -38 94 -115 86 -138 -2 -6
-20 15 -40 48 -34 55 -75 101 -123 138 -19 15 -19 16 5 4 14 -7 46 -30 72 -52z
m148 38 c13 -14 19 -25 13 -25 -5 0 -20 11 -33 25 -13 14 -19 25 -13 25 5 0
20 -11 33 -25z m-1354 -137 c-6 -23 -12 -35 -14 -26 -3 14 14 68 21 68 2 0 -1
-19 -7 -42z m1342 -33 c-3 -3 -9 2 -12 12 -6 14 -5 15 5 6 7 -7 10 -15 7 -18z
m-1361 -57 c-3 -7 -5 -2 -5 12 0 14 2 19 5 13 2 -7 2 -19 0 -25z m1341 -43
c14 -31 15 -45 4 -45 -5 0 -13 16 -19 35 -13 40 -2 47 15 10z m-1347 -12 c-12
-20 -14 -14 -5 12 4 9 9 14 11 11 3 -2 0 -13 -6 -23z m-14 -65 c-3 -8 -6 -5
-6 6 -1 11 2 17 5 13 3 -3 4 -12 1 -19z m1398 -68 c29 -117 28 -108 14 -86 -6
10 -17 44 -24 75 -7 31 -16 67 -20 81 -5 18 -4 21 3 10 6 -8 18 -44 27 -80z
m-3393 -70 c71 -26 206 -130 313 -240 82 -85 229 -190 327 -235 110 -50 327
-89 441 -79 l52 4 -35 -17 c-52 -26 -299 -25 -395 1 -127 34 -307 123 -425
211 -30 22 -92 57 -138 78 -167 76 -289 76 -437 -1 -75 -39 -81 -45 -134 -112
-24 -30 -49 -55 -55 -55 -16 0 -76 -144 -76 -183 0 -47 23 -94 71 -146 47 -52
32 -62 -21 -13 -57 51 -70 72 -85 128 -12 46 -12 63 0 121 8 38 27 92 42 121
84 157 313 297 508 310 l40 2 -45 14 c-39 12 -56 12 -122 -2 -43 -8 -92 -23
-110 -31 -17 -9 -35 -16 -39 -16 -5 0 -25 -11 -45 -25 -62 -42 -70 -28 -28 51
35 67 60 92 119 121 44 21 60 24 135 20 53 -3 106 -13 142 -27z m51 -299 c81
-28 217 -101 217 -116 0 -20 325 -181 426 -210 96 -29 238 -38 344 -22 72 11
55 -4 -39 -33 -64 -19 -89 -22 -175 -17 -56 3 -112 8 -126 12 -16 4 -12 0 10
-10 51 -24 166 -33 249 -19 96 16 289 111 401 197 47 36 86 64 88 62 8 -8
-148 -193 -194 -231 -93 -76 -147 -112 -258 -171 -36 -19 -38 -22 -16 -22 37
-1 216 83 274 129 82 64 168 149 240 238 37 45 69 82 71 82 10 0 -54 -113 -97
-173 -146 -198 -408 -343 -641 -355 -158 -7 -266 24 -530 152 -74 36 -160 72
-192 81 -64 16 -165 20 -180 6 -6 -4 -31 -14 -58 -21 -26 -7 -50 -17 -53 -21
-3 -5 -15 -9 -26 -9 -28 0 -151 -127 -182 -188 -27 -53 -46 -146 -46 -227 0
-36 -3 -46 -11 -38 -7 7 -10 51 -7 130 5 120 22 190 70 287 32 62 116 139 192
176 66 31 74 32 155 27 112 -6 160 -26 309 -126 197 -132 316 -175 467 -169
l80 3 -90 18 c-49 11 -103 21 -120 24 -54 9 -208 91 -333 177 -144 100 -211
128 -302 129 -62 0 -64 1 -35 13 95 41 206 19 404 -80 62 -32 115 -55 117 -53
6 5 -261 160 -320 186 -27 12 -69 21 -95 22 -41 0 -43 1 -21 10 23 10 72 8
130 -5 17 -4 14 -1 -10 10 -112 53 -238 7 -322 -116 -16 -23 -17 -24 -17 -4
-1 23 46 100 75 125 30 25 100 49 147 50 38 1 40 1 14 9 -50 15 -145 -5 -191
-41 -22 -18 -44 -38 -48 -43 -3 -6 -16 -22 -27 -35 -12 -14 -24 -36 -27 -50
-11 -51 -16 -61 -26 -61 -16 0 -2 83 21 128 47 91 146 150 238 139 33 -3 42
-2 33 7 -6 6 -45 11 -93 11 -69 0 -92 -5 -143 -28 -109 -51 -184 -155 -184
-257 -1 -64 -14 -51 -23 23 -16 117 79 236 232 292 56 21 188 18 254 -4z
m-540 -176 c-3 -9 -8 -14 -10 -11 -3 3 -2 9 2 15 9 16 15 13 8 -4z m2552 -39
c50 -23 92 -63 133 -121 l20 -31 -26 -11 c-15 -6 -38 -13 -52 -16 -14 -3 -43
-10 -65 -16 -62 -16 -164 -13 -220 8 -96 35 -150 54 -163 57 -8 3 -10 9 -5 16
4 7 16 38 25 68 l18 55 -6 -50 c-3 -27 -8 -58 -10 -68 -5 -16 -1 -18 35 -14
23 2 41 0 41 -4 0 -5 -6 -9 -12 -10 -7 0 5 -7 26 -15 22 -8 41 -12 44 -10 8 9
-10 27 -22 23 -9 -4 -9 11 -1 61 9 57 15 69 40 84 44 27 137 24 200 -6z m-431
-23 c-15 -71 -49 -158 -82 -213 -53 -90 -170 -195 -295 -263 -51 -29 -309
-119 -391 -137 -86 -19 -289 -14 -396 9 -111 25 -121 25 -95 7 11 -7 69 -26
128 -41 143 -36 278 -38 391 -6 43 12 81 20 83 17 2 -2 -29 -16 -69 -31 -40
-15 -86 -32 -103 -38 -18 -7 -84 -12 -160 -11 -119 0 -138 3 -220 31 -50 17
-129 49 -175 71 -140 66 -226 92 -304 95 -95 3 -147 -23 -251 -125 -44 -43
-81 -78 -84 -78 -12 0 12 91 38 145 88 178 256 267 479 251 95 -7 131 -16 362
-99 211 -75 363 -84 535 -30 117 37 288 133 384 217 54 47 76 63 67 49 -21
-36 10 -3 74 77 41 51 70 96 67 104 -6 15 1 26 15 26 5 0 6 -12 2 -27z m142
-1 c-10 -2 -22 0 -28 6 -6 6 0 7 19 4 21 -5 23 -7 9 -10z m-2289 -84 c-2 -18
-4 -4 -4 32 0 36 2 50 4 33 2 -18 2 -48 0 -65z m160 35 c-3 -10 -5 -2 -5 17 0
19 2 27 5 18 2 -10 2 -26 0 -35z m2048 -127 c18 -13 18 -14 -8 -9 -15 3 -27 9
-27 14 0 13 13 11 35 -5z m1981 -38 c9 -18 26 -44 37 -58 20 -25 20 -24 -1 30
-3 8 7 -1 23 -20 16 -19 65 -73 108 -119 43 -46 91 -110 108 -143 34 -66 33
-89 0 -34 -12 19 -66 76 -121 126 -103 95 -125 123 -159 203 -23 54 -20 63 5
15z m-3761 -37 c-36 -7 -165 -65 -165 -75 0 -2 32 9 71 26 38 16 78 28 87 26
9 -2 -6 -11 -34 -20 -67 -20 -156 -80 -196 -131 -49 -64 -52 -66 -25 -12 50
99 184 197 266 194 l36 -2 -40 -6z m1552 -253 c-3 -8 -6 -5 -6 6 -1 11 2 17 5
13 3 -3 4 -12 1 -19z m2229 -69 c-20 -49 -20 -55 -1 -62 14 -6 95 66 95 85 0
4 4 8 10 8 15 0 50 -76 50 -109 0 -31 -52 -145 -71 -157 -7 -4 -7 2 0 15 18
34 -6 75 -45 79 -25 2 -37 -3 -53 -24 -25 -32 -26 -51 -4 -76 20 -23 -2 -26
-27 -3 -15 14 -15 23 6 127 31 152 48 210 52 180 2 -13 -4 -41 -12 -63z
m-3668 0 c20 -7 13 -8 -28 -4 -30 3 -77 5 -105 6 -44 1 -47 2 -20 9 33 9 110
3 153 -11z m1449 -51 c-3 -8 -6 -5 -6 6 -1 11 2 17 5 13 3 -3 4 -12 1 -19z
m-1237 -51 c80 -25 179 -54 220 -64 87 -20 256 -23 314 -3 61 20 52 4 -11 -20
-97 -36 -157 -43 -348 -37 -162 5 -175 4 -130 -8 28 -7 102 -14 165 -15 90 -1
110 -4 90 -12 -16 -7 -98 -8 -235 -4 -203 5 -212 5 -266 -18 -30 -12 -72 -35
-92 -50 -43 -33 -117 -139 -117 -168 0 -10 -4 -16 -10 -13 -14 8 -11 112 3
152 19 49 72 119 116 151 24 17 65 34 103 42 93 19 98 33 8 25 -95 -9 -159
-34 -237 -93 -150 -115 -186 -253 -119 -457 3 -11 -8 9 -26 45 -26 52 -33 80
-36 146 -4 73 -1 89 22 140 34 74 68 118 119 155 45 32 42 37 -6 13 -122 -63
-209 -221 -192 -349 7 -55 36 -129 62 -157 9 -10 13 -21 9 -26 -13 -12 -85 80
-107 138 -73 192 81 455 311 531 14 5 75 7 135 5 96 -4 128 -10 255 -49z
m1169 -81 c1 -5 -5 -3 -13 4 -8 6 -12 19 -9 27 6 14 8 14 14 -3 4 -10 8 -23 8
-28z m2341 -1 c17 -20 5 -45 -22 -45 -21 0 -21 0 -2 16 13 11 15 17 7 20 -15
6 -18 24 -4 24 5 0 14 -7 21 -15z m-47 -10 c-3 -9 -8 -14 -10 -11 -3 3 -2 9 2
15 9 16 15 13 8 -4z m-2327 -6 c10 -17 -13 -36 -27 -22 -12 12 -4 33 11 33 5
0 12 -5 16 -11z m45 -60 c-34 -28 -47 -23 -14 5 15 13 30 22 33 19 3 -2 -6
-13 -19 -24z m2090 -206 c-12 -20 -14 -14 -5 12 4 9 9 14 11 11 3 -2 0 -13 -6
-23z m-3751 -123 c9 -22 9 -33 0 -51 -16 -29 -24 -15 -40 66 -10 48 -10 66 1
90 l12 30 8 -53 c4 -29 12 -66 19 -82z m3750 96 c0 -3 -4 -8 -10 -11 -5 -3
-10 -1 -10 4 0 6 5 11 10 11 6 0 10 -2 10 -4z m-3191 -157 c-93 -48 -175 -127
-218 -210 -35 -65 -61 -146 -61 -191 0 -16 -4 -28 -10 -28 -27 0 5 175 47 253
42 77 102 133 195 177 108 52 146 52 47 -1z m864 26 c-3 -9 -8 -14 -10 -11 -3
3 -2 9 2 15 9 16 15 13 8 -4z m-35 -67 c-13 -24 -55 -75 -93 -114 -64 -64 -86
-78 -239 -153 -129 -63 -182 -95 -223 -134 -104 -98 -164 -246 -166 -412 -1
-49 1 -103 6 -120 7 -27 6 -28 -7 -12 -20 25 -39 142 -31 191 20 129 80 256
168 352 52 57 75 73 176 121 206 98 220 106 269 147 27 23 72 71 102 109 29
37 55 67 57 67 2 0 -6 -19 -19 -42z m2439 -93 c-16 -51 -23 -63 -25 -45 -3 24
35 126 43 118 2 -2 -6 -35 -18 -73z m-206 27 c-25 -47 -191 -197 -191 -173 0
6 6 11 13 11 8 0 7 4 -3 11 -13 9 -12 10 3 5 11 -3 20 0 23 9 4 8 12 15 18 15
7 0 23 11 35 24 17 18 19 25 9 29 -7 2 -5 3 4 2 21 -3 61 38 64 67 1 13 3 24
3 25 1 1 8 0 16 -3 10 -4 12 -11 6 -22z m306 -74 c-3 -8 -6 -5 -6 6 -1 11 2
17 5 13 3 -3 4 -12 1 -19z m-200 -60 c-3 -7 -5 -2 -5 12 0 14 2 19 5 13 2 -7
2 -19 0 -25z m80 -30 c-2 -13 -4 -5 -4 17 -1 22 1 32 4 23 2 -10 2 -28 0 -40z
m-85 -31 c-7 -79 51 -211 137 -315 45 -54 165 -135 293 -198 54 -26 116 -63
139 -82 44 -38 99 -108 99 -126 0 -6 -10 5 -21 24 -29 48 -68 89 -104 107 -25
13 -20 5 26 -43 31 -33 60 -68 66 -79 14 -26 16 -168 3 -215 -27 -101 -123
-170 -235 -170 -71 0 -125 22 -178 72 -29 28 -37 43 -37 71 0 20 5 39 10 42 6
3 10 -4 10 -15 0 -85 147 -147 248 -105 143 60 150 206 16 340 -43 42 -73 60
-178 104 -69 29 -153 72 -185 96 -110 81 -182 221 -180 352 l1 68 15 -85 c18
-104 58 -184 124 -245 68 -64 78 -56 19 17 -28 34 -59 87 -71 118 -30 79 -45
310 -20 310 3 0 5 -19 3 -43z m-1572 -9 c0 -12 -6 -9 -26 13 -19 22 -19 22 4
8 12 -8 22 -17 22 -21z m1249 -8 c-59 -50 -159 -119 -159 -110 0 5 3 10 8 10
4 0 31 23 60 50 38 36 48 50 35 51 -16 0 -16 1 2 9 29 12 37 12 29 -2 -4 -6 3
-4 16 5 32 22 39 13 9 -13z m-1218 -17 c13 -16 12 -17 -3 -4 -10 7 -18 15 -18
17 0 8 8 3 21 -13z m-621 -37 c0 -3 -4 -8 -10 -11 -5 -3 -10 -1 -10 4 0 6 5
11 10 11 6 0 10 -2 10 -4z m725 -44 c34 -30 25 -27 -19 6 -16 12 -25 22 -20
22 5 0 23 -13 39 -28z m945 -27 c0 -2 -10 -9 -22 -15 -22 -11 -22 -10 -4 4 21
17 26 19 26 11z m-735 -113 c-5 -5 -112 58 -126 74 -6 8 20 -5 59 -28 38 -24
68 -44 67 -46z m112 -38 c-3 -3 -12 -4 -19 -1 -8 3 -5 6 6 6 11 1 17 -2 13 -5z
m360 0 c-3 -3 -12 -4 -19 -1 -8 3 -5 6 6 6 11 1 17 -2 13 -5z m-293 -13 c3 -4
-6 -6 -19 -3 -14 2 -25 6 -25 8 0 8 39 4 44 -5z m63 -7 c-3 -3 -12 -4 -19 -1
-8 3 -5 6 6 6 11 1 17 -2 13 -5z m160 0 c-3 -3 -12 -4 -19 -1 -8 3 -5 6 6 6
11 1 17 -2 13 -5z m-1178 -159 c-35 -59 -122 -129 -191 -153 -72 -25 -191 -33
-210 -14 -9 9 -1 12 36 12 67 0 191 38 251 76 28 17 68 50 90 73 21 22 40 41
42 41 1 0 -7 -16 -18 -35z m1694 -62 c8 -111 34 -262 48 -279 19 -23 -4 -16
-42 12 -19 14 -69 46 -111 70 l-76 45 54 72 c30 39 54 82 54 94 0 14 6 23 15
23 8 0 15 6 15 13 0 16 21 38 30 32 4 -3 10 -40 13 -82z m-1193 -8 c14 -26 49
-73 79 -104 48 -49 52 -57 36 -66 -10 -5 -51 -34 -93 -63 -41 -29 -77 -51 -79
-48 -3 3 -2 80 2 171 5 115 11 165 19 162 6 -2 22 -25 36 -52z m-725 -5 c-3
-5 -11 -10 -16 -10 -6 0 -7 5 -4 10 3 6 11 10 16 10 6 0 7 -4 4 -10z m330 -41
c-22 -42 -83 -108 -126 -134 -60 -39 -129 -57 -209 -56 -108 1 -248 41 -202
58 9 3 10 9 3 17 -7 8 0 10 29 8 57 -6 189 14 252 38 30 11 80 36 112 55 50
30 56 32 44 13 -8 -13 -38 -42 -67 -65 -28 -24 -47 -43 -41 -43 25 0 118 54
165 95 28 24 51 44 53 45 1 0 -5 -14 -13 -31z m36 -86 c-21 -39 -109 -113
-161 -137 -91 -40 -159 -51 -238 -37 -37 7 -83 21 -102 32 l-35 20 35 -6 c164
-25 270 -10 386 57 41 23 84 52 96 65 26 27 32 29 19 6z m268 -69 c1 -17 -6
-37 -14 -44 -13 -11 -15 -8 -15 16 0 16 3 47 7 69 6 36 7 38 14 15 4 -14 7
-39 8 -56z m-1074 -65 c3 -56 10 -84 34 -133 29 -56 30 -59 7 -34 -47 52 -76
163 -60 226 10 37 16 18 19 -59z m2648 32 c-2 -3 -16 8 -31 24 l-27 28 31 -24
c17 -13 30 -26 27 -28z m694 17 c-3 -8 -6 -5 -6 6 -1 11 2 17 5 13 3 -3 4 -12
1 -19z m-3142 -54 c6 -7 55 -26 110 -43 118 -37 189 -40 290 -12 38 11 71 18
73 16 7 -7 -47 -36 -104 -56 -87 -31 -197 -23 -294 22 -66 30 -120 76 -120
101 0 10 25 -5 45 -28z m3152 -6 c-3 -8 -6 -5 -6 6 -1 11 2 17 5 13 3 -3 4
-12 1 -19z m-2304 -20 c-5 -26 -4 -30 11 -25 13 5 12 0 -6 -23 -12 -17 -22
-30 -23 -30 -2 0 5 62 11 88 2 12 6 22 9 22 2 0 2 -14 -2 -32z m1807 23 c0 -6
-4 -13 -10 -16 -5 -3 -10 1 -10 9 0 9 5 16 10 16 6 0 10 -4 10 -9z m70 -45 c0
-3 -4 -8 -10 -11 -5 -3 -10 -1 -10 4 0 6 5 11 10 11 6 0 10 -2 10 -4z m-1497
-525 c16 -6 17 -9 5 -18 -19 -16 -174 -21 -188 -7 -9 9 6 14 62 22 93 12 99
12 121 3z m-486 -23 c-3 -8 -6 -5 -6 6 -1 11 2 17 5 13 3 -3 4 -12 1 -19z
m919 -189 c3 -6 2 -15 -3 -20 -12 -12 -144 -30 -171 -22 -44 11 -14 28 69 39
46 6 87 12 91 13 4 0 10 -4 14 -10z m709 -19 c3 -5 1 -10 -4 -10 -6 0 -11 5
-11 10 0 6 2 10 4 10 3 0 8 -4 11 -10z m-1668 -257 c-3 -10 -5 -4 -5 12 0 17
2 24 5 18 2 -7 2 -21 0 -30z m1186 2 c-1 -5 -32 -18 -69 -28 -101 -28 -163 -3
-66 27 51 16 138 17 135 1z m268 -88 c-10 -9 -11 -8 -5 6 3 10 9 15 12 12 3
-3 0 -11 -7 -18z"/>
<path d="M2750 3476 c0 -2 7 -6 15 -10 8 -3 15 -1 15 4 0 6 -7 10 -15 10 -8 0
-15 -2 -15 -4z"/>
<path d="M2760 3449 c0 -5 5 -9 11 -9 8 0 7 -6 -2 -17 -11 -13 -11 -17 -1 -20
6 -3 10 -9 6 -14 -3 -5 1 -9 9 -9 22 0 16 72 -6 76 -9 1 -17 -2 -17 -7z"/>
<path d="M2065 3299 c-4 -6 -5 -12 -2 -15 2 -3 7 2 10 11 7 17 1 20 -8 4z"/>
<path d="M455 2560 c-4 -6 -4 -14 0 -18 4 -4 10 -1 13 7 4 11 6 11 14 0 8 -12
9 -12 6 0 -5 19 -24 25 -33 11z"/>
<path d="M450 2498 c0 -19 2 -20 10 -8 13 19 13 30 0 30 -5 0 -10 -10 -10 -22z"/>
<path d="M1700 1276 c0 -2 7 -6 15 -10 8 -3 15 -1 15 4 0 6 -7 10 -15 10 -8 0
-15 -2 -15 -4z"/>
<path d="M1760 1260 c8 -5 33 -9 55 -9 39 1 39 2 10 9 -16 4 -41 8 -55 9 -20
0 -22 -1 -10 -9z"/>
<path d="M1898 1263 c7 -3 16 -2 19 1 4 3 -2 6 -13 5 -11 0 -14 -3 -6 -6z"/>
<path d="M3762 5438 c14 -13 46 -38 70 -57 l43 -34 -40 42 c-22 24 -53 49 -70
57 l-30 15 27 -23z"/>
<path d="M3845 5300 c28 -30 51 -57 53 -59 1 -2 4 -2 7 0 2 3 -21 30 -53 60
l-57 54 50 -55z"/>
<path d="M2074 5288 l-19 -23 23 19 c21 18 27 26 19 26 -2 0 -12 -10 -23 -22z"/>
<path d="M3670 5224 c40 -42 75 -92 90 -127 24 -55 49 -82 30 -33 -34 90 -78
151 -145 201 -33 25 -29 18 25 -41z"/>
<path d="M2890 5151 c-69 -19 -125 -44 -135 -61 -7 -11 36 -4 65 10 8 4 54 13
102 20 108 16 187 3 273 -45 104 -58 164 -137 172 -225 9 -93 -16 -143 -116
-234 -18 -16 -30 -30 -29 -32 11 -10 136 64 174 102 95 98 82 239 -31 348 -50
47 -150 106 -182 106 -10 0 -23 4 -28 9 -6 5 -53 12 -105 15 -74 4 -110 1
-160 -13z"/>
<path d="M4148 5163 c6 -2 18 -2 25 0 6 3 1 5 -13 5 -14 0 -19 -2 -12 -5z"/>
<path d="M1978 5098 c-30 -29 -50 -50 -44 -45 19 14 29 7 15 -11 -8 -10 5 3
29 28 40 42 68 80 59 80 -2 0 -28 -24 -59 -52z"/>
<path d="M2162 5079 c-35 -28 -61 -53 -58 -57 3 -3 -2 -14 -11 -25 -10 -12 19
10 65 47 74 61 96 87 75 86 -5 -1 -36 -23 -71 -51z"/>
<path d="M3325 5098 c92 -67 144 -154 146 -245 2 -77 -19 -123 -86 -190 -31
-31 -53 -58 -51 -61 9 -8 134 67 154 93 33 41 35 178 5 247 -26 58 -95 133
-145 159 -49 25 -60 24 -23 -3z"/>
<path d="M1981 4959 c-13 -10 -18 -19 -12 -19 6 0 13 0 16 0 3 0 5 3 4 6 0 4
5 10 12 15 8 4 11 10 9 13 -3 2 -16 -4 -29 -15z"/>
<path d="M2129 4963 c-13 -16 -12 -17 4 -4 9 7 17 15 17 17 0 8 -8 3 -21 -13z"/>
<path d="M3692 4915 c0 -16 2 -22 5 -12 2 9 2 23 0 30 -3 6 -5 -1 -5 -18z"/>
<path d="M4490 4936 c0 -2 8 -10 18 -17 15 -13 16 -12 3 4 -13 16 -21 21 -21
13z"/>
<path d="M1809 4913 c-13 -16 -12 -17 4 -4 9 7 17 15 17 17 0 8 -8 3 -21 -13z"/>
<path d="M1448 4823 c6 -2 18 -2 25 0 6 3 1 5 -13 5 -14 0 -19 -2 -12 -5z"/>
<path d="M1693 4823 c9 -2 25 -2 35 0 9 3 1 5 -18 5 -19 0 -27 -2 -17 -5z"/>
<path d="M3541 4814 c0 -11 3 -14 6 -6 3 7 2 16 -1 19 -3 4 -6 -2 -5 -13z"/>
<path d="M2361 4714 c0 -11 3 -14 6 -6 3 7 2 16 -1 19 -3 4 -6 -2 -5 -13z"/>
<path d="M1279 4658 c-67 -49 -114 -112 -143 -195 -13 -36 -13 -41 0 -36 11 4
14 -4 15 -33 0 -36 2 -33 17 26 21 80 61 149 125 218 56 59 51 67 -14 20z"/>
<path d="M4647 4573 c46 -90 63 -110 63 -78 0 25 -35 87 -75 130 l-36 40 48
-92z"/>
<path d="M1498 4624 c-75 -26 -155 -89 -205 -162 -36 -52 -38 -58 -38 -136 0
-64 5 -91 23 -127 30 -62 107 -137 167 -164 55 -25 161 -43 150 -25 -3 5 -14
10 -23 10 -41 0 -159 68 -204 119 -39 43 -86 136 -75 148 2 2 16 -19 31 -46
54 -101 173 -172 295 -179 150 -9 261 38 381 158 65 65 151 193 138 205 -2 2
-30 -32 -63 -76 -81 -110 -190 -192 -296 -223 -30 -8 -186 -20 -179 -13 9 9
191 67 210 67 10 0 22 5 26 11 4 8 -5 9 -32 5 -67 -10 -194 -19 -194 -13 0 2
37 10 83 17 79 12 176 45 165 56 -3 3 -23 1 -44 -5 -46 -12 -191 -26 -184 -18
3 3 41 13 85 22 84 18 169 54 128 55 -12 0 -48 -7 -80 -16 -70 -18 -197 -29
-189 -16 3 5 24 12 47 16 119 19 265 88 350 164 62 57 146 169 134 180 -4 4
-11 -2 -17 -13 -19 -37 -153 -160 -203 -187 -69 -37 -285 -89 -285 -69 0 5 46
21 103 36 56 15 107 29 112 31 6 2 -29 1 -76 -2 -103 -7 -133 10 -36 21 34 4
85 13 112 20 l50 14 -110 1 -110 2 90 14 c81 12 181 41 173 49 -2 2 -38 -1
-81 -7 -45 -6 -98 -7 -125 -2 -43 7 -37 9 62 15 60 4 113 12 118 17 11 11
-246 26 -312 17 l-45 -5 35 16 c19 9 52 19 75 24 35 7 32 8 -30 8 -38 -1 -86
-7 -107 -14z"/>
<path d="M2341 4624 c0 -11 3 -14 6 -6 3 7 2 16 -1 19 -3 4 -6 -2 -5 -13z"/>
<path d="M2331 4582 c0 -12 -5 -30 -10 -40 -5 -9 -15 -44 -21 -77 -36 -179
-80 -272 -193 -407 -93 -112 -305 -218 -435 -218 -23 0 -44 -4 -47 -10 -4 -6
22 -10 70 -10 270 0 501 187 594 481 27 85 54 239 48 275 -3 22 -4 24 -6 6z"/>
<path d="M1071 4519 c-6 -18 -11 -46 -10 -63 0 -22 5 -13 14 29 14 67 13 82
-4 34z"/>
<path d="M4570 4446 c0 -7 72 -126 76 -126 2 0 1 7 -2 15 -8 20 5 19 30 -2 11
-10 4 1 -16 24 -20 23 -44 53 -53 67 -15 22 -35 35 -35 22z"/>
<path d="M2361 4404 c0 -11 3 -14 6 -6 3 7 2 16 -1 19 -3 4 -6 -2 -5 -13z"/>
<path d="M4670 4414 c0 -5 7 -19 15 -30 8 -10 15 -14 15 -8 0 5 -7 19 -15 30
-8 10 -15 14 -15 8z"/>
<path d="M1062 4360 c0 -14 3 -34 8 -45 l9 -20 -1 20 c0 11 -4 31 -8 45 l-8
25 0 -25z"/>
<path d="M2336 4314 c-26 -101 -60 -177 -121 -269 -70 -106 -143 -172 -242
-221 -111 -54 -120 -57 -131 -50 -6 3 -13 2 -17 -4 -3 -6 -18 -10 -33 -10 -15
0 -45 -2 -66 -5 -34 -4 -132 9 -233 30 -61 13 6 -15 88 -37 284 -76 571 64
708 345 40 82 91 287 72 287 -5 0 -16 -30 -25 -66z"/>
<path d="M1113 4330 c0 -25 2 -35 4 -22 2 12 2 32 0 45 -2 12 -4 2 -4 -23z"/>
<path d="M575 4300 c-4 -6 6 -10 24 -10 16 0 33 5 36 10 4 6 -6 10 -24 10 -16
0 -33 -4 -36 -10z"/>
<path d="M1152 4290 c0 -14 2 -19 5 -12 2 6 2 18 0 25 -3 6 -5 1 -5 -13z"/>
<path d="M725 4290 c3 -5 8 -10 11 -10 2 0 4 5 4 10 0 6 -5 10 -11 10 -5 0 -7
-4 -4 -10z"/>
<path d="M4770 4295 c0 -5 5 -17 10 -25 5 -8 10 -10 10 -5 0 6 -5 17 -10 25
-5 8 -10 11 -10 5z"/>
<path d="M2121 4220 c-45 -62 -154 -152 -227 -189 -80 -39 -182 -61 -291 -61
-56 0 -114 5 -130 11 -39 16 -93 28 -93 22 0 -3 8 -11 17 -18 14 -11 15 -16 5
-28 -11 -13 -4 -17 57 -31 130 -30 303 -16 412 33 70 31 163 103 209 162 41
52 95 147 88 155 -2 2 -24 -24 -47 -56z"/>
<path d="M810 4266 c0 -7 113 -57 118 -52 2 3 -19 16 -47 30 -47 24 -71 32
-71 22z"/>
<path d="M395 4250 c-3 -6 1 -7 9 -4 18 7 21 14 7 14 -6 0 -13 -4 -16 -10z"/>
<path d="M4730 4215 c19 -19 36 -35 39 -35 3 0 -10 16 -29 35 -19 19 -36 35
-39 35 -3 0 10 -16 29 -35z"/>
<path d="M4780 4176 c0 -2 8 -10 18 -17 15 -13 16 -12 3 4 -13 16 -21 21 -21
13z"/>
<path d="M1000 4161 c0 -5 5 -13 10 -16 6 -3 10 -2 10 4 0 5 -4 13 -10 16 -5
3 -10 2 -10 -4z"/>
<path d="M1030 4142 c0 -12 19 -26 26 -19 2 2 -2 10 -11 17 -9 8 -15 8 -15 2z"/>
<path d="M4588 4033 c51 -71 179 -177 367 -303 148 -99 275 -227 337 -340 25
-47 49 -101 52 -120 5 -30 2 -26 -23 25 -64 128 -182 243 -312 302 -82 38
-188 77 -194 71 -2 -2 49 -29 113 -61 237 -115 351 -249 398 -467 15 -72 18
-217 5 -239 -5 -8 -10 21 -13 75 -6 105 -33 174 -98 247 -48 54 -159 137 -184
137 -9 0 -28 7 -41 16 -14 9 -25 14 -25 11 0 -3 26 -23 57 -44 32 -21 88 -67
124 -103 87 -86 118 -160 118 -281 0 -46 -5 -104 -11 -129 -16 -69 -80 -199
-127 -258 -38 -48 -159 -148 -168 -139 -2 2 25 33 60 70 145 150 201 371 136
542 -21 56 -97 158 -131 176 -22 12 -22 11 4 -23 164 -215 139 -469 -67 -673
-38 -39 -97 -88 -129 -110 -167 -113 -239 -198 -238 -280 1 -25 6 -54 12 -65
17 -31 92 -69 170 -86 65 -13 160 -48 160 -58 0 -2 -37 -2 -82 1 -95 5 -89 -8
11 -26 60 -10 141 -50 141 -70 0 -4 -12 -6 -26 -3 -19 3 -25 1 -20 -7 4 -6 14
-11 23 -11 9 0 14 -2 12 -5 -3 -2 -45 2 -94 10 -49 8 -91 13 -93 10 -2 -2 40
-18 94 -34 95 -30 195 -78 209 -102 4 -6 -10 -2 -31 9 -47 23 -158 62 -179 62
-24 0 -17 -17 10 -24 38 -10 135 -56 181 -87 77 -52 121 -147 135 -287 10
-109 -1 -174 -37 -228 -14 -20 -23 -38 -20 -41 11 -11 75 70 90 114 22 62 35
303 17 303 -7 0 -11 8 -9 18 1 9 -2 23 -6 31 -7 11 -5 13 7 8 13 -5 17 3 23
39 17 114 -27 231 -122 330 -33 34 -80 71 -104 84 -44 22 -44 22 31 -51 113
-110 160 -207 158 -324 -1 -27 -3 -42 -6 -32 -2 9 -9 14 -15 11 -12 -7 -68 44
-68 63 0 14 34 35 44 26 17 -18 2 29 -22 68 -59 92 -178 174 -357 244 -92 36
-127 57 -120 73 2 7 -2 15 -10 18 -29 11 2 41 50 48 56 9 59 26 5 26 -22 0
-40 5 -40 10 0 17 41 28 131 36 88 7 86 16 -10 29 -62 8 -53 20 24 31 112 15
220 1 300 -39 70 -34 137 -89 167 -136 45 -72 81 -195 74 -260 -7 -73 -21 -85
-37 -30 -18 65 -101 165 -174 210 -52 33 -51 21 2 -33 28 -29 65 -73 82 -97
42 -60 75 -171 66 -228 l-6 -43 55 0 c68 0 170 40 227 88 71 61 108 163 93
259 l-7 48 -17 -65 c-19 -74 -51 -141 -88 -185 -23 -28 -129 -115 -139 -115
-3 0 23 33 58 73 95 110 140 231 124 335 -12 82 -23 91 -22 19 0 -39 -5 -73
-11 -79 -9 -9 -12 -4 -12 23 0 65 -17 63 -24 -4 -13 -127 -51 -212 -134 -297
-38 -39 -35 -30 15 47 49 74 77 181 70 263 -6 70 -41 170 -77 220 -30 42 -36
31 -11 -19 24 -46 54 -165 48 -190 -2 -9 -11 7 -19 34 -59 185 -195 314 -351
332 l-52 6 30 13 c17 7 64 13 105 13 65 1 84 -4 142 -32 43 -21 62 -27 52 -16
-30 33 -127 73 -194 79 l-65 7 55 1 c34 1 81 -7 125 -22 39 -14 71 -23 73 -21
5 5 -107 65 -122 65 -8 0 -18 5 -22 11 -5 9 4 10 32 5 210 -38 360 -185 413
-404 28 -118 61 -82 61 67 0 30 -3 41 -9 32 -16 -26 -31 0 -31 55 0 42 -8 73
-33 127 -62 134 -179 207 -333 207 -73 0 -80 10 -40 57 62 74 138 218 161 308
17 67 21 260 5 250 -5 -3 -10 -19 -10 -36 0 -37 -20 -39 -21 -1 -1 15 -6 -13
-10 -63 -14 -149 -25 -163 -27 -34 -2 142 -22 212 -94 329 -78 126 -186 228
-368 350 -165 110 -264 185 -319 244 -41 42 -61 48 -33 9z m888 -1498 c60 -27
116 -79 145 -138 l21 -42 -49 51 c-53 57 -168 144 -189 144 -7 0 -16 5 -20 11
-8 14 20 6 92 -26z m-235 -181 c63 -32 114 -77 144 -128 42 -72 86 -290 55
-271 -5 3 -10 17 -10 29 0 38 -70 167 -115 211 -82 82 -228 145 -337 145 -64
0 -61 16 5 29 121 24 190 20 258 -15z m-156 -584 c4 -6 -5 -5 -19 2 -14 6 -26
15 -26 20 0 10 36 -7 45 -22z"/>
<path d="M1344 4015 c11 -8 22 -12 25 -9 6 6 -19 24 -34 24 -5 -1 -1 -7 9 -15z"/>
<path d="M3670 3799 c-30 -6 -64 -12 -75 -13 -11 -2 -40 -9 -65 -16 -25 -7
-56 -14 -69 -16 -30 -4 -79 -50 -97 -91 -22 -52 -16 -61 17 -23 20 24 27 27
19 12 -13 -27 -8 -38 12 -26 7 5 22 10 33 11 47 4 105 16 170 33 126 34 221
50 306 51 74 1 91 -2 136 -26 33 -17 60 -24 73 -20 20 6 28 25 10 25 -5 0 -10
-5 -10 -10 0 -6 -16 8 -36 30 -27 30 -52 45 -103 61 -77 25 -235 33 -321 18z"/>
<path d="M5215 3675 c32 -36 59 -65 61 -65 2 0 1 8 -3 18 -4 10 9 3 32 -18
l39 -35 -39 48 c-34 43 -123 117 -140 117 -4 0 19 -29 50 -65z"/>
<path d="M3351 3699 c-31 -29 -57 -100 -31 -84 10 6 64 105 57 105 -2 0 -13
-9 -26 -21z"/>
<path d="M2976 3665 c20 -51 34 -66 34 -38 0 12 -11 35 -25 50 l-25 28 16 -40z"/>
<path d="M5371 3604 c0 -11 3 -14 6 -6 3 7 2 16 -1 19 -3 4 -6 -2 -5 -13z"/>
<path d="M5290 3589 c0 -3 11 -20 25 -39 14 -19 25 -30 25 -24 0 10 -49 73
-50 63z"/>
<path d="M2820 3570 c13 -8 13 -11 1 -22 -11 -11 -13 -11 -6 1 6 10 4 12 -4 6
-18 -10 1 -27 32 -28 17 -1 22 -6 16 -11 -14 -15 -11 -29 16 -60 14 -16 25
-33 25 -38 0 -4 8 -8 18 -8 14 0 15 2 2 10 -11 7 -6 10 20 11 19 0 29 3 22 6
-6 2 -10 9 -6 14 3 5 0 9 -7 9 -8 0 -7 5 2 17 8 9 9 14 3 10 -7 -4 -14 2 -17
14 -3 12 -10 18 -16 14 -6 -3 -11 1 -11 9 0 9 -9 16 -21 16 -11 0 -18 4 -15 9
3 5 -8 14 -26 20 -38 13 -48 14 -28 1z"/>
<path d="M5392 3530 c0 -14 2 -19 5 -12 2 6 2 18 0 25 -3 6 -5 1 -5 -13z"/>
<path d="M5412 3320 c0 -14 2 -19 5 -12 2 6 2 18 0 25 -3 6 -5 1 -5 -13z"/>
<path d="M5422 3270 c0 -14 2 -19 5 -12 2 6 2 18 0 25 -3 6 -5 1 -5 -13z"/>
<path d="M3294 2900 c3 -8 2 -28 -2 -45 -7 -26 -15 -31 -63 -43 -33 -8 -75
-10 -109 -5 -30 3 -64 7 -75 7 -15 1 -21 10 -25 36 -5 32 -6 33 -12 11 -4 -13
-4 -37 -1 -52 5 -25 10 -29 38 -29 31 0 65 -25 65 -48 0 -6 7 -18 16 -27 9 -9
15 -18 12 -20 -7 -7 -23 9 -38 40 -13 24 -23 31 -54 33 -20 2 -43 -1 -50 -7
-7 -6 -17 -6 -26 -1 -12 8 -10 10 8 10 12 0 22 5 22 10 0 6 -14 10 -31 10 -29
0 -31 -2 -25 -27 5 -21 4 -24 -4 -13 -5 8 -10 23 -10 33 0 32 -25 12 -28 -22
-3 -25 4 -39 31 -66 35 -35 79 -46 92 -25 4 6 15 8 26 5 10 -4 32 -7 49 -7 32
-1 37 -7 18 -26 -8 -8 -8 -15 2 -27 15 -18 43 -19 71 -4 18 9 19 13 7 27 -20
23 -21 68 -3 102 18 35 43 50 83 50 16 0 35 7 42 15 16 19 7 83 -15 104 -14
14 -15 14 -11 1z"/>
<path d="M4832 2855 c0 -16 2 -22 5 -12 2 9 2 23 0 30 -3 6 -5 -1 -5 -18z"/>
<path d="M3355 2771 c-7 -22 -29 -28 -40 -11 -3 6 -19 10 -34 10 -35 0 -81
-47 -81 -82 0 -23 5 -27 38 -33 98 -16 178 32 170 103 -4 35 -43 44 -53 13z
m22 -32 c-15 -37 -44 -66 -54 -55 -3 3 -1 6 6 6 7 0 21 21 32 46 23 52 38 54
16 3z m-82 -69 c-3 -5 -11 -10 -16 -10 -6 0 -7 5 -4 10 3 6 11 10 16 10 6 0 7
-4 4 -10z"/>
<path d="M3619 2552 c-1 -4 -1 -14 0 -23 3 -26 -35 -52 -77 -52 -22 0 -80 10
-129 23 l-91 23 -68 -22 c-37 -11 -84 -21 -104 -21 -43 0 -100 18 -100 31 0
13 24 11 38 -3 14 -14 130 -14 145 1 6 6 9 13 6 15 -9 9 -175 10 -189 1 -8 -6
-49 -15 -90 -22 -41 -6 -104 -17 -140 -23 -64 -11 -104 -7 -128 12 -9 8 -9 14
-1 24 9 11 7 15 -6 21 -27 10 -70 -19 -70 -47 0 -24 3 -27 78 -61 17 -8 46
-41 72 -84 82 -132 186 -220 288 -246 27 -6 84 -10 131 -7 156 8 277 91 363
247 47 86 69 109 110 117 43 8 65 46 42 69 -17 17 -78 37 -80 27z m-494 -256
c38 -28 -26 -60 -79 -40 -14 5 -14 8 1 30 17 27 50 31 78 10z m145 -11 c0 -33
-86 -48 -111 -19 -18 22 3 34 64 34 35 0 47 -4 47 -15z"/>
<path d="M4479 2223 c-28 -64 -29 -139 -3 -183 22 -39 85 -85 127 -94 38 -9
34 10 -6 23 -94 31 -141 151 -102 260 19 56 9 52 -16 -6z"/>
<path d="M325 2089 c-4 -6 -5 -12 -2 -15 2 -3 7 2 10 11 7 17 1 20 -8 4z"/>
<path d="M5100 2081 c24 -20 40 -26 40 -16 0 2 -15 12 -32 20 l-33 16 25 -20z"/>
<path d="M302 1995 c0 -16 2 -22 5 -12 2 9 2 23 0 30 -3 6 -5 -1 -5 -18z"/>
<path d="M1616 1745 c-26 -13 -53 -29 -60 -36 -6 -6 -6 -10 -1 -7 6 2 28 13
50 23 45 20 85 45 70 44 -6 0 -32 -11 -59 -24z"/>
<path d="M4818 1763 c7 -3 16 -2 19 1 4 3 -2 6 -13 5 -11 0 -14 -3 -6 -6z"/>
<path d="M4858 1753 c7 -3 16 -2 19 1 4 3 -2 6 -13 5 -11 0 -14 -3 -6 -6z"/>
<path d="M1356 1605 c-3 -8 -1 -15 4 -15 6 0 10 7 10 15 0 8 -2 15 -4 15 -2 0
-6 -7 -10 -15z"/>
<path d="M5321 1584 c-12 -27 -11 -28 4 -12 10 9 16 21 13 28 -2 7 -10 -1 -17
-16z"/>
<path d="M4990 1583 c0 -5 16 -25 36 -44 20 -18 52 -65 70 -104 29 -59 34 -80
34 -140 0 -92 -30 -157 -107 -233 -32 -31 -51 -52 -43 -46 8 7 41 17 72 24 43
8 64 19 83 42 51 60 69 108 69 183 0 88 -30 157 -101 235 -49 53 -113 100
-113 83z"/>
<path d="M4980 1506 c0 -2 8 -10 18 -17 15 -13 16 -12 3 4 -13 16 -21 21 -21
13z"/>
<path d="M4940 1240 c0 -35 3 -60 6 -57 8 7 7 108 -1 115 -3 3 -5 -23 -5 -58z"/>
<path d="M5091 1257 c-1 -45 -25 -95 -82 -168 -34 -44 -36 -49 -11 -25 71 66
120 165 102 208 -8 20 -9 18 -9 -15z"/>
<path d="M2320 1210 c0 -5 5 -10 10 -10 6 0 10 5 10 10 0 6 -4 10 -10 10 -5 0
-10 -4 -10 -10z"/>
<path d="M2278 1165 c-26 -34 -22 -40 7 -11 26 26 31 36 18 36 -5 0 -16 -11
-25 -25z"/>
<path d="M2325 1180 c3 -5 1 -10 -4 -10 -6 0 -11 -4 -11 -10 0 -17 14 -11 28
10 10 17 10 20 -4 20 -8 0 -12 -4 -9 -10z"/>
<path d="M2285 1130 c-3 -5 -1 -10 4 -10 6 0 11 5 11 10 0 6 -2 10 -4 10 -3 0
-8 -4 -11 -10z"/>
<path d="M2260 1095 c-7 -9 -10 -18 -7 -21 3 -3 10 4 17 15 13 25 8 27 -10 6z"/>
<path d="M3980 795 c7 -9 15 -13 17 -11 7 7 -7 26 -19 26 -6 0 -6 -6 2 -15z"/>
<path d="M4000 750 c0 -5 5 -10 11 -10 5 0 7 5 4 10 -3 6 -8 10 -11 10 -2 0
-4 -4 -4 -10z"/>
<path d="M2738 473 c7 -3 16 -2 19 1 4 3 -2 6 -13 5 -11 0 -14 -3 -6 -6z"/>
<path d="M2671 461 c-23 -15 3 -20 29 -5 22 12 23 13 5 13 -11 1 -26 -3 -34
-8z"/>
<path d="M2530 443 c-30 -6 -88 -45 -73 -50 6 -2 26 5 44 16 19 12 42 21 52
21 9 0 17 5 17 10 0 6 -3 9 -7 9 -5 -1 -19 -4 -33 -6z"/>
<path d="M2587 439 c8 -8 16 -8 30 0 16 9 14 10 -11 11 -22 0 -27 -3 -19 -11z"/>
<path d="M2395 359 c-16 -10 -47 -28 -68 -39 -22 -12 -37 -24 -34 -27 3 -3 16
2 29 11 12 9 29 16 38 16 15 1 76 48 69 54 -2 2 -17 -5 -34 -15z"/>
<path d="M2255 280 c-3 -5 -1 -10 4 -10 6 0 11 5 11 10 0 6 -2 10 -4 10 -3 0
-8 -4 -11 -10z"/>
<path d="M2219 233 c0 -10 -2 -31 -3 -47 -1 -17 1 -48 5 -70 5 -31 7 -20 8 47
0 48 -1 87 -4 87 -3 0 -5 -8 -6 -17z"/>
<path d="M2860 179 c0 -5 5 -7 10 -4 6 3 10 8 10 11 0 2 -4 4 -10 4 -5 0 -10
-5 -10 -11z"/>
</g>
</svg>
